<svg width="512" height="512" xmlns="http://www.w3.org/2000/svg">

 <g>
  <title>background</title>
  <rect fill="none" id="canvas_background" height="402" width="582" y="-1" x="-1"/>
 </g>
 <g>
  <title>Layer 1</title>
  <path fill="#1b1464" id="svg_1" d="m239.208,343.937c-17.78,10.103 -38.342,15.876 -60.255,15.876c-21.909,0 -42.467,-5.771 -60.246,-15.87c-47.163,14.388 -76.064,62.057 -86.707,104.057l293.912,0c-10.639,-42 -39.537,-89.683 -86.704,-104.063zm-60.255,-223.902c-58.479,0 -105.886,47.394 -105.886,105.858c0,58.464 47.407,105.857 105.886,105.857s105.886,-47.394 105.886,-105.857c0,-58.464 -47.408,-105.858 -105.886,-105.858zm0,186.488c-33.671,0 -62.445,-22.513 -73.997,-50.523l147.994,0c-11.554,28.011 -40.326,50.523 -73.997,50.523z"/>
  <g id="svg_2">
   <path fill="#1b1464" id="svg_3" d="m322.602,384l157.398,0c-10.638,-42 -39.537,-81.691 -86.703,-96.072c-17.781,10.104 -38.343,15.873 -60.256,15.873c-14.823,0 -29.024,-2.654 -42.168,-7.49c-7.445,12.47 -16.927,25.592 -27.974,34.906c26.346,10.137 46.247,32.783 59.703,52.783zm-16.057,-184l100.493,0c-11.554,28 -40.327,50.293 -73.997,50.293c-8.875,0 -17.404,-1.692 -25.375,-4.51a128.411,128.411 0 0 1 -6.52,25.118c10.066,3.174 20.779,4.862 31.895,4.862c58.479,0 105.886,-47.41 105.886,-105.872c0,-58.465 -47.407,-105.866 -105.886,-105.866c-37.49,0 -70.427,19.703 -89.243,49.09c31.809,18.268 55.163,49.885 62.747,86.885z"/>
  </g>
 </g>
</svg>